<mxfile host="Electron" agent="Mozilla/5.0 (Windows NT 10.0; Win64; x64) AppleWebKit/537.36 (KHTML, like Gecko) draw.io/26.1.1 Chrome/132.0.6834.210 Electron/34.3.3 Safari/537.36" version="26.1.1" pages="2">
  <diagram name="DB" id="JK_FErfIr6oy5i24hhPM">
    <mxGraphModel dx="1434" dy="444" grid="1" gridSize="10" guides="1" tooltips="1" connect="1" arrows="1" fold="1" page="0" pageScale="1" pageWidth="850" pageHeight="1100" math="0" shadow="0">
      <root>
        <mxCell id="0" />
        <mxCell id="1" parent="0" />
        <mxCell id="VkhU9kwHKQFLwFZGmQcn-1" value="SystemConfiguration" style="swimlane;horizontal=0;whiteSpace=wrap;html=1;startSize=40;collapsible=0;fillColor=#fff2cc;strokeColor=#d6b656;" vertex="1" parent="1">
          <mxGeometry x="40" y="400" width="360" height="150" as="geometry" />
        </mxCell>
        <mxCell id="VkhU9kwHKQFLwFZGmQcn-4" value="Field" style="swimlane;fontStyle=1;childLayout=stackLayout;horizontal=1;startSize=30;horizontalStack=0;resizeParent=1;resizeParentMax=0;resizeLast=0;collapsible=0;marginBottom=0;whiteSpace=wrap;html=1;" vertex="1" parent="VkhU9kwHKQFLwFZGmQcn-1">
          <mxGeometry x="40" width="120" height="150" as="geometry" />
        </mxCell>
        <mxCell id="VkhU9kwHKQFLwFZGmQcn-5" value="id" style="text;strokeColor=none;fillColor=none;align=left;verticalAlign=middle;spacingLeft=4;spacingRight=4;overflow=hidden;points=[[0,0.5],[1,0.5]];portConstraint=eastwest;rotatable=0;whiteSpace=wrap;html=1;" vertex="1" parent="VkhU9kwHKQFLwFZGmQcn-4">
          <mxGeometry y="30" width="120" height="30" as="geometry" />
        </mxCell>
        <mxCell id="VkhU9kwHKQFLwFZGmQcn-6" value="key" style="text;strokeColor=none;fillColor=none;align=left;verticalAlign=middle;spacingLeft=4;spacingRight=4;overflow=hidden;points=[[0,0.5],[1,0.5]];portConstraint=eastwest;rotatable=0;whiteSpace=wrap;html=1;" vertex="1" parent="VkhU9kwHKQFLwFZGmQcn-4">
          <mxGeometry y="60" width="120" height="30" as="geometry" />
        </mxCell>
        <mxCell id="VkhU9kwHKQFLwFZGmQcn-7" value="value" style="text;strokeColor=none;fillColor=none;align=left;verticalAlign=middle;spacingLeft=4;spacingRight=4;overflow=hidden;points=[[0,0.5],[1,0.5]];portConstraint=eastwest;rotatable=0;whiteSpace=wrap;html=1;" vertex="1" parent="VkhU9kwHKQFLwFZGmQcn-4">
          <mxGeometry y="90" width="120" height="30" as="geometry" />
        </mxCell>
        <mxCell id="VkhU9kwHKQFLwFZGmQcn-12" value="updated_at" style="text;strokeColor=none;fillColor=none;align=left;verticalAlign=middle;spacingLeft=4;spacingRight=4;overflow=hidden;points=[[0,0.5],[1,0.5]];portConstraint=eastwest;rotatable=0;whiteSpace=wrap;html=1;" vertex="1" parent="VkhU9kwHKQFLwFZGmQcn-4">
          <mxGeometry y="120" width="120" height="30" as="geometry" />
        </mxCell>
        <mxCell id="VkhU9kwHKQFLwFZGmQcn-8" value="Type" style="swimlane;fontStyle=1;childLayout=stackLayout;horizontal=1;startSize=30;horizontalStack=0;resizeParent=1;resizeParentMax=0;resizeLast=0;collapsible=0;marginBottom=0;whiteSpace=wrap;html=1;align=center;" vertex="1" parent="VkhU9kwHKQFLwFZGmQcn-1">
          <mxGeometry x="160" width="120" height="150" as="geometry" />
        </mxCell>
        <mxCell id="VkhU9kwHKQFLwFZGmQcn-9" value="integer" style="text;strokeColor=none;fillColor=none;align=left;verticalAlign=middle;spacingLeft=4;spacingRight=4;overflow=hidden;points=[[0,0.5],[1,0.5]];portConstraint=eastwest;rotatable=0;whiteSpace=wrap;html=1;" vertex="1" parent="VkhU9kwHKQFLwFZGmQcn-8">
          <mxGeometry y="30" width="120" height="30" as="geometry" />
        </mxCell>
        <mxCell id="VkhU9kwHKQFLwFZGmQcn-10" value="string(255)" style="text;strokeColor=none;fillColor=none;align=left;verticalAlign=middle;spacingLeft=4;spacingRight=4;overflow=hidden;points=[[0,0.5],[1,0.5]];portConstraint=eastwest;rotatable=0;whiteSpace=wrap;html=1;" vertex="1" parent="VkhU9kwHKQFLwFZGmQcn-8">
          <mxGeometry y="60" width="120" height="30" as="geometry" />
        </mxCell>
        <mxCell id="VkhU9kwHKQFLwFZGmQcn-11" value="text" style="text;strokeColor=none;fillColor=none;align=left;verticalAlign=middle;spacingLeft=4;spacingRight=4;overflow=hidden;points=[[0,0.5],[1,0.5]];portConstraint=eastwest;rotatable=0;whiteSpace=wrap;html=1;" vertex="1" parent="VkhU9kwHKQFLwFZGmQcn-8">
          <mxGeometry y="90" width="120" height="30" as="geometry" />
        </mxCell>
        <mxCell id="VkhU9kwHKQFLwFZGmQcn-14" value="datetimetz" style="text;strokeColor=none;fillColor=none;align=left;verticalAlign=middle;spacingLeft=4;spacingRight=4;overflow=hidden;points=[[0,0.5],[1,0.5]];portConstraint=eastwest;rotatable=0;whiteSpace=wrap;html=1;" vertex="1" parent="VkhU9kwHKQFLwFZGmQcn-8">
          <mxGeometry y="120" width="120" height="30" as="geometry" />
        </mxCell>
        <mxCell id="VkhU9kwHKQFLwFZGmQcn-15" value="Uniq" style="swimlane;fontStyle=1;childLayout=stackLayout;horizontal=1;startSize=30;horizontalStack=0;resizeParent=1;resizeParentMax=0;resizeLast=0;collapsible=0;marginBottom=0;html=1;swimlaneLine=1;rounded=0;glass=0;shadow=0;swimlaneHead=1;connectable=0;allowArrows=0;container=1;comic=0;fontSize=7;" vertex="1" parent="VkhU9kwHKQFLwFZGmQcn-1">
          <mxGeometry x="320" width="20" height="150" as="geometry">
            <mxRectangle x="320" width="70" height="30" as="alternateBounds" />
          </mxGeometry>
        </mxCell>
        <mxCell id="VkhU9kwHKQFLwFZGmQcn-16" value="X" style="text;strokeColor=none;fillColor=none;align=center;verticalAlign=middle;spacingLeft=4;spacingRight=4;overflow=hidden;points=[[0,0.5],[1,0.5]];portConstraint=eastwest;rotatable=0;whiteSpace=wrap;html=1;" vertex="1" parent="VkhU9kwHKQFLwFZGmQcn-15">
          <mxGeometry y="30" width="20" height="30" as="geometry" />
        </mxCell>
        <mxCell id="VkhU9kwHKQFLwFZGmQcn-17" value="X" style="text;strokeColor=none;fillColor=none;align=center;verticalAlign=middle;spacingLeft=4;spacingRight=4;overflow=hidden;points=[[0,0.5],[1,0.5]];portConstraint=eastwest;rotatable=0;whiteSpace=wrap;html=1;" vertex="1" parent="VkhU9kwHKQFLwFZGmQcn-15">
          <mxGeometry y="60" width="20" height="30" as="geometry" />
        </mxCell>
        <mxCell id="VkhU9kwHKQFLwFZGmQcn-18" value="&amp;nbsp;" style="text;strokeColor=none;fillColor=none;align=center;verticalAlign=middle;spacingLeft=4;spacingRight=4;overflow=hidden;points=[[0,0.5],[1,0.5]];portConstraint=eastwest;rotatable=0;whiteSpace=wrap;html=1;" vertex="1" parent="VkhU9kwHKQFLwFZGmQcn-15">
          <mxGeometry y="90" width="20" height="30" as="geometry" />
        </mxCell>
        <mxCell id="VkhU9kwHKQFLwFZGmQcn-20" value="&amp;nbsp;" style="text;strokeColor=none;fillColor=none;align=center;verticalAlign=middle;spacingLeft=4;spacingRight=4;overflow=hidden;points=[[0,0.5],[1,0.5]];portConstraint=eastwest;rotatable=0;whiteSpace=wrap;html=1;" vertex="1" parent="VkhU9kwHKQFLwFZGmQcn-15">
          <mxGeometry y="120" width="20" height="30" as="geometry" />
        </mxCell>
        <mxCell id="VkhU9kwHKQFLwFZGmQcn-21" value="Seq" style="swimlane;fontStyle=1;childLayout=stackLayout;horizontal=1;startSize=30;horizontalStack=0;resizeParent=1;resizeParentMax=0;resizeLast=0;collapsible=0;marginBottom=0;html=1;swimlaneLine=1;rounded=0;glass=0;shadow=0;swimlaneHead=1;connectable=0;allowArrows=0;container=1;comic=0;fontSize=7;" vertex="1" parent="VkhU9kwHKQFLwFZGmQcn-1">
          <mxGeometry x="300" width="20" height="150" as="geometry">
            <mxRectangle x="320" width="70" height="30" as="alternateBounds" />
          </mxGeometry>
        </mxCell>
        <mxCell id="VkhU9kwHKQFLwFZGmQcn-22" value="X" style="text;strokeColor=none;fillColor=none;align=center;verticalAlign=middle;spacingLeft=4;spacingRight=4;overflow=hidden;points=[[0,0.5],[1,0.5]];portConstraint=eastwest;rotatable=0;whiteSpace=wrap;html=1;" vertex="1" parent="VkhU9kwHKQFLwFZGmQcn-21">
          <mxGeometry y="30" width="20" height="30" as="geometry" />
        </mxCell>
        <mxCell id="VkhU9kwHKQFLwFZGmQcn-23" value="&amp;nbsp;" style="text;strokeColor=none;fillColor=none;align=center;verticalAlign=middle;spacingLeft=4;spacingRight=4;overflow=hidden;points=[[0,0.5],[1,0.5]];portConstraint=eastwest;rotatable=0;whiteSpace=wrap;html=1;" vertex="1" parent="VkhU9kwHKQFLwFZGmQcn-21">
          <mxGeometry y="60" width="20" height="30" as="geometry" />
        </mxCell>
        <mxCell id="VkhU9kwHKQFLwFZGmQcn-24" value="&amp;nbsp;" style="text;strokeColor=none;fillColor=none;align=center;verticalAlign=middle;spacingLeft=4;spacingRight=4;overflow=hidden;points=[[0,0.5],[1,0.5]];portConstraint=eastwest;rotatable=0;whiteSpace=wrap;html=1;" vertex="1" parent="VkhU9kwHKQFLwFZGmQcn-21">
          <mxGeometry y="90" width="20" height="30" as="geometry" />
        </mxCell>
        <mxCell id="VkhU9kwHKQFLwFZGmQcn-25" value="&amp;nbsp;" style="text;strokeColor=none;fillColor=none;align=center;verticalAlign=middle;spacingLeft=4;spacingRight=4;overflow=hidden;points=[[0,0.5],[1,0.5]];portConstraint=eastwest;rotatable=0;whiteSpace=wrap;html=1;" vertex="1" parent="VkhU9kwHKQFLwFZGmQcn-21">
          <mxGeometry y="120" width="20" height="30" as="geometry" />
        </mxCell>
        <mxCell id="VkhU9kwHKQFLwFZGmQcn-26" value="Null" style="swimlane;fontStyle=1;childLayout=stackLayout;horizontal=1;startSize=30;horizontalStack=0;resizeParent=1;resizeParentMax=0;resizeLast=0;collapsible=0;marginBottom=0;html=1;swimlaneLine=1;rounded=0;glass=0;shadow=0;swimlaneHead=1;connectable=0;allowArrows=0;container=1;comic=0;fontSize=7;" vertex="1" parent="VkhU9kwHKQFLwFZGmQcn-1">
          <mxGeometry x="340" width="20" height="150" as="geometry">
            <mxRectangle x="320" width="70" height="30" as="alternateBounds" />
          </mxGeometry>
        </mxCell>
        <mxCell id="VkhU9kwHKQFLwFZGmQcn-27" value="&amp;nbsp;" style="text;strokeColor=none;fillColor=none;align=center;verticalAlign=middle;spacingLeft=4;spacingRight=4;overflow=hidden;points=[[0,0.5],[1,0.5]];portConstraint=eastwest;rotatable=0;whiteSpace=wrap;html=1;" vertex="1" parent="VkhU9kwHKQFLwFZGmQcn-26">
          <mxGeometry y="30" width="20" height="30" as="geometry" />
        </mxCell>
        <mxCell id="VkhU9kwHKQFLwFZGmQcn-28" value="&amp;nbsp;" style="text;strokeColor=none;fillColor=none;align=center;verticalAlign=middle;spacingLeft=4;spacingRight=4;overflow=hidden;points=[[0,0.5],[1,0.5]];portConstraint=eastwest;rotatable=0;whiteSpace=wrap;html=1;" vertex="1" parent="VkhU9kwHKQFLwFZGmQcn-26">
          <mxGeometry y="60" width="20" height="30" as="geometry" />
        </mxCell>
        <mxCell id="VkhU9kwHKQFLwFZGmQcn-29" value="&amp;nbsp;" style="text;strokeColor=none;fillColor=none;align=center;verticalAlign=middle;spacingLeft=4;spacingRight=4;overflow=hidden;points=[[0,0.5],[1,0.5]];portConstraint=eastwest;rotatable=0;whiteSpace=wrap;html=1;" vertex="1" parent="VkhU9kwHKQFLwFZGmQcn-26">
          <mxGeometry y="90" width="20" height="30" as="geometry" />
        </mxCell>
        <mxCell id="VkhU9kwHKQFLwFZGmQcn-30" value="&amp;nbsp;" style="text;strokeColor=none;fillColor=none;align=center;verticalAlign=middle;spacingLeft=4;spacingRight=4;overflow=hidden;points=[[0,0.5],[1,0.5]];portConstraint=eastwest;rotatable=0;whiteSpace=wrap;html=1;" vertex="1" parent="VkhU9kwHKQFLwFZGmQcn-26">
          <mxGeometry y="120" width="20" height="30" as="geometry" />
        </mxCell>
        <mxCell id="VkhU9kwHKQFLwFZGmQcn-31" value="Primary" style="swimlane;fontStyle=1;childLayout=stackLayout;horizontal=1;startSize=30;horizontalStack=0;resizeParent=1;resizeParentMax=0;resizeLast=0;collapsible=0;marginBottom=0;html=1;swimlaneLine=1;rounded=0;glass=0;shadow=0;swimlaneHead=1;connectable=0;allowArrows=0;container=1;comic=0;fontSize=5;" vertex="1" parent="VkhU9kwHKQFLwFZGmQcn-1">
          <mxGeometry x="280" width="20" height="150" as="geometry">
            <mxRectangle x="320" width="70" height="30" as="alternateBounds" />
          </mxGeometry>
        </mxCell>
        <mxCell id="VkhU9kwHKQFLwFZGmQcn-32" value="X" style="text;strokeColor=none;fillColor=none;align=center;verticalAlign=middle;spacingLeft=4;spacingRight=4;overflow=hidden;points=[[0,0.5],[1,0.5]];portConstraint=eastwest;rotatable=0;whiteSpace=wrap;html=1;" vertex="1" parent="VkhU9kwHKQFLwFZGmQcn-31">
          <mxGeometry y="30" width="20" height="30" as="geometry" />
        </mxCell>
        <mxCell id="VkhU9kwHKQFLwFZGmQcn-33" value="&amp;nbsp;" style="text;strokeColor=none;fillColor=none;align=center;verticalAlign=middle;spacingLeft=4;spacingRight=4;overflow=hidden;points=[[0,0.5],[1,0.5]];portConstraint=eastwest;rotatable=0;whiteSpace=wrap;html=1;" vertex="1" parent="VkhU9kwHKQFLwFZGmQcn-31">
          <mxGeometry y="60" width="20" height="30" as="geometry" />
        </mxCell>
        <mxCell id="VkhU9kwHKQFLwFZGmQcn-34" value="&amp;nbsp;" style="text;strokeColor=none;fillColor=none;align=center;verticalAlign=middle;spacingLeft=4;spacingRight=4;overflow=hidden;points=[[0,0.5],[1,0.5]];portConstraint=eastwest;rotatable=0;whiteSpace=wrap;html=1;" vertex="1" parent="VkhU9kwHKQFLwFZGmQcn-31">
          <mxGeometry y="90" width="20" height="30" as="geometry" />
        </mxCell>
        <mxCell id="VkhU9kwHKQFLwFZGmQcn-35" value="&amp;nbsp;" style="text;strokeColor=none;fillColor=none;align=center;verticalAlign=middle;spacingLeft=4;spacingRight=4;overflow=hidden;points=[[0,0.5],[1,0.5]];portConstraint=eastwest;rotatable=0;whiteSpace=wrap;html=1;" vertex="1" parent="VkhU9kwHKQFLwFZGmQcn-31">
          <mxGeometry y="120" width="20" height="30" as="geometry" />
        </mxCell>
        <mxCell id="VkhU9kwHKQFLwFZGmQcn-36" value="Department" style="swimlane;horizontal=0;whiteSpace=wrap;html=1;startSize=40;collapsible=0;fillColor=#fff2cc;strokeColor=#d6b656;" vertex="1" parent="1">
          <mxGeometry x="40" y="600" width="360" height="240" as="geometry" />
        </mxCell>
        <mxCell id="VkhU9kwHKQFLwFZGmQcn-37" value="Field" style="swimlane;fontStyle=1;childLayout=stackLayout;horizontal=1;startSize=30;horizontalStack=0;resizeParent=1;resizeParentMax=0;resizeLast=0;collapsible=0;marginBottom=0;whiteSpace=wrap;html=1;" vertex="1" parent="VkhU9kwHKQFLwFZGmQcn-36">
          <mxGeometry x="40" width="120" height="240" as="geometry" />
        </mxCell>
        <mxCell id="VkhU9kwHKQFLwFZGmQcn-38" value="id" style="text;strokeColor=none;fillColor=none;align=left;verticalAlign=middle;spacingLeft=4;spacingRight=4;overflow=hidden;points=[[0,0.5],[1,0.5]];portConstraint=eastwest;rotatable=0;whiteSpace=wrap;html=1;" vertex="1" parent="VkhU9kwHKQFLwFZGmQcn-37">
          <mxGeometry y="30" width="120" height="30" as="geometry" />
        </mxCell>
        <mxCell id="VkhU9kwHKQFLwFZGmQcn-39" value="uuid" style="text;strokeColor=none;fillColor=none;align=left;verticalAlign=middle;spacingLeft=4;spacingRight=4;overflow=hidden;points=[[0,0.5],[1,0.5]];portConstraint=eastwest;rotatable=0;whiteSpace=wrap;html=1;" vertex="1" parent="VkhU9kwHKQFLwFZGmQcn-37">
          <mxGeometry y="60" width="120" height="30" as="geometry" />
        </mxCell>
        <mxCell id="VkhU9kwHKQFLwFZGmQcn-40" value="name" style="text;strokeColor=none;fillColor=none;align=left;verticalAlign=middle;spacingLeft=4;spacingRight=4;overflow=hidden;points=[[0,0.5],[1,0.5]];portConstraint=eastwest;rotatable=0;whiteSpace=wrap;html=1;" vertex="1" parent="VkhU9kwHKQFLwFZGmQcn-37">
          <mxGeometry y="90" width="120" height="30" as="geometry" />
        </mxCell>
        <mxCell id="VkhU9kwHKQFLwFZGmQcn-41" value="description" style="text;strokeColor=none;fillColor=none;align=left;verticalAlign=middle;spacingLeft=4;spacingRight=4;overflow=hidden;points=[[0,0.5],[1,0.5]];portConstraint=eastwest;rotatable=0;whiteSpace=wrap;html=1;" vertex="1" parent="VkhU9kwHKQFLwFZGmQcn-37">
          <mxGeometry y="120" width="120" height="30" as="geometry" />
        </mxCell>
        <mxCell id="VkhU9kwHKQFLwFZGmQcn-67" value="flag_internal" style="text;strokeColor=none;fillColor=none;align=left;verticalAlign=middle;spacingLeft=4;spacingRight=4;overflow=hidden;points=[[0,0.5],[1,0.5]];portConstraint=eastwest;rotatable=0;whiteSpace=wrap;html=1;" vertex="1" parent="VkhU9kwHKQFLwFZGmQcn-37">
          <mxGeometry y="150" width="120" height="30" as="geometry" />
        </mxCell>
        <mxCell id="VkhU9kwHKQFLwFZGmQcn-71" value="contact_list" style="text;strokeColor=none;fillColor=none;align=left;verticalAlign=middle;spacingLeft=4;spacingRight=4;overflow=hidden;points=[[0,0.5],[1,0.5]];portConstraint=eastwest;rotatable=0;whiteSpace=wrap;html=1;" vertex="1" parent="VkhU9kwHKQFLwFZGmQcn-37">
          <mxGeometry y="180" width="120" height="30" as="geometry" />
        </mxCell>
        <mxCell id="VkhU9kwHKQFLwFZGmQcn-83" value="updated_at" style="text;strokeColor=none;fillColor=none;align=left;verticalAlign=middle;spacingLeft=4;spacingRight=4;overflow=hidden;points=[[0,0.5],[1,0.5]];portConstraint=eastwest;rotatable=0;whiteSpace=wrap;html=1;" vertex="1" parent="VkhU9kwHKQFLwFZGmQcn-37">
          <mxGeometry y="210" width="120" height="30" as="geometry" />
        </mxCell>
        <mxCell id="VkhU9kwHKQFLwFZGmQcn-42" value="Type" style="swimlane;fontStyle=1;childLayout=stackLayout;horizontal=1;startSize=30;horizontalStack=0;resizeParent=1;resizeParentMax=0;resizeLast=0;collapsible=0;marginBottom=0;whiteSpace=wrap;html=1;align=center;" vertex="1" parent="VkhU9kwHKQFLwFZGmQcn-36">
          <mxGeometry x="160" width="120" height="240" as="geometry" />
        </mxCell>
        <mxCell id="VkhU9kwHKQFLwFZGmQcn-43" value="integer" style="text;strokeColor=none;fillColor=none;align=left;verticalAlign=middle;spacingLeft=4;spacingRight=4;overflow=hidden;points=[[0,0.5],[1,0.5]];portConstraint=eastwest;rotatable=0;whiteSpace=wrap;html=1;" vertex="1" parent="VkhU9kwHKQFLwFZGmQcn-42">
          <mxGeometry y="30" width="120" height="30" as="geometry" />
        </mxCell>
        <mxCell id="VkhU9kwHKQFLwFZGmQcn-44" value="UUID" style="text;strokeColor=none;fillColor=none;align=left;verticalAlign=middle;spacingLeft=4;spacingRight=4;overflow=hidden;points=[[0,0.5],[1,0.5]];portConstraint=eastwest;rotatable=0;whiteSpace=wrap;html=1;" vertex="1" parent="VkhU9kwHKQFLwFZGmQcn-42">
          <mxGeometry y="60" width="120" height="30" as="geometry" />
        </mxCell>
        <mxCell id="VkhU9kwHKQFLwFZGmQcn-45" value="string(100)" style="text;strokeColor=none;fillColor=none;align=left;verticalAlign=middle;spacingLeft=4;spacingRight=4;overflow=hidden;points=[[0,0.5],[1,0.5]];portConstraint=eastwest;rotatable=0;whiteSpace=wrap;html=1;" vertex="1" parent="VkhU9kwHKQFLwFZGmQcn-42">
          <mxGeometry y="90" width="120" height="30" as="geometry" />
        </mxCell>
        <mxCell id="VkhU9kwHKQFLwFZGmQcn-46" value="text" style="text;strokeColor=none;fillColor=none;align=left;verticalAlign=middle;spacingLeft=4;spacingRight=4;overflow=hidden;points=[[0,0.5],[1,0.5]];portConstraint=eastwest;rotatable=0;whiteSpace=wrap;html=1;" vertex="1" parent="VkhU9kwHKQFLwFZGmQcn-42">
          <mxGeometry y="120" width="120" height="30" as="geometry" />
        </mxCell>
        <mxCell id="VkhU9kwHKQFLwFZGmQcn-72" value="boolean" style="text;strokeColor=none;fillColor=none;align=left;verticalAlign=middle;spacingLeft=4;spacingRight=4;overflow=hidden;points=[[0,0.5],[1,0.5]];portConstraint=eastwest;rotatable=0;whiteSpace=wrap;html=1;" vertex="1" parent="VkhU9kwHKQFLwFZGmQcn-42">
          <mxGeometry y="150" width="120" height="30" as="geometry" />
        </mxCell>
        <mxCell id="VkhU9kwHKQFLwFZGmQcn-73" value="JSON" style="text;strokeColor=none;fillColor=none;align=left;verticalAlign=middle;spacingLeft=4;spacingRight=4;overflow=hidden;points=[[0,0.5],[1,0.5]];portConstraint=eastwest;rotatable=0;whiteSpace=wrap;html=1;" vertex="1" parent="VkhU9kwHKQFLwFZGmQcn-42">
          <mxGeometry y="180" width="120" height="30" as="geometry" />
        </mxCell>
        <mxCell id="VkhU9kwHKQFLwFZGmQcn-84" value="datetimetz" style="text;strokeColor=none;fillColor=none;align=left;verticalAlign=middle;spacingLeft=4;spacingRight=4;overflow=hidden;points=[[0,0.5],[1,0.5]];portConstraint=eastwest;rotatable=0;whiteSpace=wrap;html=1;" vertex="1" parent="VkhU9kwHKQFLwFZGmQcn-42">
          <mxGeometry y="210" width="120" height="30" as="geometry" />
        </mxCell>
        <mxCell id="VkhU9kwHKQFLwFZGmQcn-47" value="Uniq" style="swimlane;fontStyle=1;childLayout=stackLayout;horizontal=1;startSize=30;horizontalStack=0;resizeParent=1;resizeParentMax=0;resizeLast=0;collapsible=0;marginBottom=0;html=1;swimlaneLine=1;rounded=0;glass=0;shadow=0;swimlaneHead=1;connectable=0;allowArrows=0;container=1;comic=0;fontSize=7;" vertex="1" parent="VkhU9kwHKQFLwFZGmQcn-36">
          <mxGeometry x="320" width="20" height="240" as="geometry">
            <mxRectangle x="320" width="70" height="30" as="alternateBounds" />
          </mxGeometry>
        </mxCell>
        <mxCell id="VkhU9kwHKQFLwFZGmQcn-48" value="X" style="text;strokeColor=none;fillColor=none;align=center;verticalAlign=middle;spacingLeft=4;spacingRight=4;overflow=hidden;points=[[0,0.5],[1,0.5]];portConstraint=eastwest;rotatable=0;whiteSpace=wrap;html=1;" vertex="1" parent="VkhU9kwHKQFLwFZGmQcn-47">
          <mxGeometry y="30" width="20" height="30" as="geometry" />
        </mxCell>
        <mxCell id="VkhU9kwHKQFLwFZGmQcn-49" value="X" style="text;strokeColor=none;fillColor=none;align=center;verticalAlign=middle;spacingLeft=4;spacingRight=4;overflow=hidden;points=[[0,0.5],[1,0.5]];portConstraint=eastwest;rotatable=0;whiteSpace=wrap;html=1;" vertex="1" parent="VkhU9kwHKQFLwFZGmQcn-47">
          <mxGeometry y="60" width="20" height="30" as="geometry" />
        </mxCell>
        <mxCell id="VkhU9kwHKQFLwFZGmQcn-50" value="X" style="text;strokeColor=none;fillColor=none;align=center;verticalAlign=middle;spacingLeft=4;spacingRight=4;overflow=hidden;points=[[0,0.5],[1,0.5]];portConstraint=eastwest;rotatable=0;whiteSpace=wrap;html=1;" vertex="1" parent="VkhU9kwHKQFLwFZGmQcn-47">
          <mxGeometry y="90" width="20" height="30" as="geometry" />
        </mxCell>
        <mxCell id="VkhU9kwHKQFLwFZGmQcn-51" value="&amp;nbsp;" style="text;strokeColor=none;fillColor=none;align=center;verticalAlign=middle;spacingLeft=4;spacingRight=4;overflow=hidden;points=[[0,0.5],[1,0.5]];portConstraint=eastwest;rotatable=0;whiteSpace=wrap;html=1;" vertex="1" parent="VkhU9kwHKQFLwFZGmQcn-47">
          <mxGeometry y="120" width="20" height="30" as="geometry" />
        </mxCell>
        <mxCell id="VkhU9kwHKQFLwFZGmQcn-79" value="&amp;nbsp;" style="text;strokeColor=none;fillColor=none;align=center;verticalAlign=middle;spacingLeft=4;spacingRight=4;overflow=hidden;points=[[0,0.5],[1,0.5]];portConstraint=eastwest;rotatable=0;whiteSpace=wrap;html=1;" vertex="1" parent="VkhU9kwHKQFLwFZGmQcn-47">
          <mxGeometry y="150" width="20" height="30" as="geometry" />
        </mxCell>
        <mxCell id="VkhU9kwHKQFLwFZGmQcn-80" value="&amp;nbsp;" style="text;strokeColor=none;fillColor=none;align=center;verticalAlign=middle;spacingLeft=4;spacingRight=4;overflow=hidden;points=[[0,0.5],[1,0.5]];portConstraint=eastwest;rotatable=0;whiteSpace=wrap;html=1;" vertex="1" parent="VkhU9kwHKQFLwFZGmQcn-47">
          <mxGeometry y="180" width="20" height="30" as="geometry" />
        </mxCell>
        <mxCell id="VkhU9kwHKQFLwFZGmQcn-87" value="&amp;nbsp;" style="text;strokeColor=none;fillColor=none;align=center;verticalAlign=middle;spacingLeft=4;spacingRight=4;overflow=hidden;points=[[0,0.5],[1,0.5]];portConstraint=eastwest;rotatable=0;whiteSpace=wrap;html=1;" vertex="1" parent="VkhU9kwHKQFLwFZGmQcn-47">
          <mxGeometry y="210" width="20" height="30" as="geometry" />
        </mxCell>
        <mxCell id="VkhU9kwHKQFLwFZGmQcn-52" value="Seq" style="swimlane;fontStyle=1;childLayout=stackLayout;horizontal=1;startSize=30;horizontalStack=0;resizeParent=1;resizeParentMax=0;resizeLast=0;collapsible=0;marginBottom=0;html=1;swimlaneLine=1;rounded=0;glass=0;shadow=0;swimlaneHead=1;connectable=0;allowArrows=0;container=1;comic=0;fontSize=7;" vertex="1" parent="VkhU9kwHKQFLwFZGmQcn-36">
          <mxGeometry x="300" width="20" height="240" as="geometry">
            <mxRectangle x="320" width="70" height="30" as="alternateBounds" />
          </mxGeometry>
        </mxCell>
        <mxCell id="VkhU9kwHKQFLwFZGmQcn-53" value="X" style="text;strokeColor=none;fillColor=none;align=center;verticalAlign=middle;spacingLeft=4;spacingRight=4;overflow=hidden;points=[[0,0.5],[1,0.5]];portConstraint=eastwest;rotatable=0;whiteSpace=wrap;html=1;" vertex="1" parent="VkhU9kwHKQFLwFZGmQcn-52">
          <mxGeometry y="30" width="20" height="30" as="geometry" />
        </mxCell>
        <mxCell id="VkhU9kwHKQFLwFZGmQcn-54" value="&amp;nbsp;" style="text;strokeColor=none;fillColor=none;align=center;verticalAlign=middle;spacingLeft=4;spacingRight=4;overflow=hidden;points=[[0,0.5],[1,0.5]];portConstraint=eastwest;rotatable=0;whiteSpace=wrap;html=1;" vertex="1" parent="VkhU9kwHKQFLwFZGmQcn-52">
          <mxGeometry y="60" width="20" height="30" as="geometry" />
        </mxCell>
        <mxCell id="VkhU9kwHKQFLwFZGmQcn-55" value="&amp;nbsp;" style="text;strokeColor=none;fillColor=none;align=center;verticalAlign=middle;spacingLeft=4;spacingRight=4;overflow=hidden;points=[[0,0.5],[1,0.5]];portConstraint=eastwest;rotatable=0;whiteSpace=wrap;html=1;" vertex="1" parent="VkhU9kwHKQFLwFZGmQcn-52">
          <mxGeometry y="90" width="20" height="30" as="geometry" />
        </mxCell>
        <mxCell id="VkhU9kwHKQFLwFZGmQcn-56" value="&amp;nbsp;" style="text;strokeColor=none;fillColor=none;align=center;verticalAlign=middle;spacingLeft=4;spacingRight=4;overflow=hidden;points=[[0,0.5],[1,0.5]];portConstraint=eastwest;rotatable=0;whiteSpace=wrap;html=1;" vertex="1" parent="VkhU9kwHKQFLwFZGmQcn-52">
          <mxGeometry y="120" width="20" height="30" as="geometry" />
        </mxCell>
        <mxCell id="VkhU9kwHKQFLwFZGmQcn-77" value="&amp;nbsp;" style="text;strokeColor=none;fillColor=none;align=center;verticalAlign=middle;spacingLeft=4;spacingRight=4;overflow=hidden;points=[[0,0.5],[1,0.5]];portConstraint=eastwest;rotatable=0;whiteSpace=wrap;html=1;" vertex="1" parent="VkhU9kwHKQFLwFZGmQcn-52">
          <mxGeometry y="150" width="20" height="30" as="geometry" />
        </mxCell>
        <mxCell id="VkhU9kwHKQFLwFZGmQcn-78" value="&amp;nbsp;" style="text;strokeColor=none;fillColor=none;align=center;verticalAlign=middle;spacingLeft=4;spacingRight=4;overflow=hidden;points=[[0,0.5],[1,0.5]];portConstraint=eastwest;rotatable=0;whiteSpace=wrap;html=1;" vertex="1" parent="VkhU9kwHKQFLwFZGmQcn-52">
          <mxGeometry y="180" width="20" height="30" as="geometry" />
        </mxCell>
        <mxCell id="VkhU9kwHKQFLwFZGmQcn-86" value="&amp;nbsp;" style="text;strokeColor=none;fillColor=none;align=center;verticalAlign=middle;spacingLeft=4;spacingRight=4;overflow=hidden;points=[[0,0.5],[1,0.5]];portConstraint=eastwest;rotatable=0;whiteSpace=wrap;html=1;" vertex="1" parent="VkhU9kwHKQFLwFZGmQcn-52">
          <mxGeometry y="210" width="20" height="30" as="geometry" />
        </mxCell>
        <mxCell id="VkhU9kwHKQFLwFZGmQcn-57" value="Null" style="swimlane;fontStyle=1;childLayout=stackLayout;horizontal=1;startSize=30;horizontalStack=0;resizeParent=1;resizeParentMax=0;resizeLast=0;collapsible=0;marginBottom=0;html=1;swimlaneLine=1;rounded=0;glass=0;shadow=0;swimlaneHead=1;connectable=0;allowArrows=0;container=1;comic=0;fontSize=7;" vertex="1" parent="VkhU9kwHKQFLwFZGmQcn-36">
          <mxGeometry x="340" width="20" height="240" as="geometry">
            <mxRectangle x="320" width="70" height="30" as="alternateBounds" />
          </mxGeometry>
        </mxCell>
        <mxCell id="VkhU9kwHKQFLwFZGmQcn-58" value="&amp;nbsp;" style="text;strokeColor=none;fillColor=none;align=center;verticalAlign=middle;spacingLeft=4;spacingRight=4;overflow=hidden;points=[[0,0.5],[1,0.5]];portConstraint=eastwest;rotatable=0;whiteSpace=wrap;html=1;" vertex="1" parent="VkhU9kwHKQFLwFZGmQcn-57">
          <mxGeometry y="30" width="20" height="30" as="geometry" />
        </mxCell>
        <mxCell id="VkhU9kwHKQFLwFZGmQcn-59" value="&amp;nbsp;" style="text;strokeColor=none;fillColor=none;align=center;verticalAlign=middle;spacingLeft=4;spacingRight=4;overflow=hidden;points=[[0,0.5],[1,0.5]];portConstraint=eastwest;rotatable=0;whiteSpace=wrap;html=1;" vertex="1" parent="VkhU9kwHKQFLwFZGmQcn-57">
          <mxGeometry y="60" width="20" height="30" as="geometry" />
        </mxCell>
        <mxCell id="VkhU9kwHKQFLwFZGmQcn-60" value="&amp;nbsp;" style="text;strokeColor=none;fillColor=none;align=center;verticalAlign=middle;spacingLeft=4;spacingRight=4;overflow=hidden;points=[[0,0.5],[1,0.5]];portConstraint=eastwest;rotatable=0;whiteSpace=wrap;html=1;" vertex="1" parent="VkhU9kwHKQFLwFZGmQcn-57">
          <mxGeometry y="90" width="20" height="30" as="geometry" />
        </mxCell>
        <mxCell id="VkhU9kwHKQFLwFZGmQcn-61" value="X" style="text;strokeColor=none;fillColor=none;align=center;verticalAlign=middle;spacingLeft=4;spacingRight=4;overflow=hidden;points=[[0,0.5],[1,0.5]];portConstraint=eastwest;rotatable=0;whiteSpace=wrap;html=1;" vertex="1" parent="VkhU9kwHKQFLwFZGmQcn-57">
          <mxGeometry y="120" width="20" height="30" as="geometry" />
        </mxCell>
        <mxCell id="VkhU9kwHKQFLwFZGmQcn-81" value="&amp;nbsp;" style="text;strokeColor=none;fillColor=none;align=center;verticalAlign=middle;spacingLeft=4;spacingRight=4;overflow=hidden;points=[[0,0.5],[1,0.5]];portConstraint=eastwest;rotatable=0;whiteSpace=wrap;html=1;" vertex="1" parent="VkhU9kwHKQFLwFZGmQcn-57">
          <mxGeometry y="150" width="20" height="30" as="geometry" />
        </mxCell>
        <mxCell id="VkhU9kwHKQFLwFZGmQcn-82" value="X" style="text;strokeColor=none;fillColor=none;align=center;verticalAlign=middle;spacingLeft=4;spacingRight=4;overflow=hidden;points=[[0,0.5],[1,0.5]];portConstraint=eastwest;rotatable=0;whiteSpace=wrap;html=1;" vertex="1" parent="VkhU9kwHKQFLwFZGmQcn-57">
          <mxGeometry y="180" width="20" height="30" as="geometry" />
        </mxCell>
        <mxCell id="VkhU9kwHKQFLwFZGmQcn-88" value="&amp;nbsp;" style="text;strokeColor=none;fillColor=none;align=center;verticalAlign=middle;spacingLeft=4;spacingRight=4;overflow=hidden;points=[[0,0.5],[1,0.5]];portConstraint=eastwest;rotatable=0;whiteSpace=wrap;html=1;" vertex="1" parent="VkhU9kwHKQFLwFZGmQcn-57">
          <mxGeometry y="210" width="20" height="30" as="geometry" />
        </mxCell>
        <mxCell id="VkhU9kwHKQFLwFZGmQcn-62" value="Primary" style="swimlane;fontStyle=1;childLayout=stackLayout;horizontal=1;startSize=30;horizontalStack=0;resizeParent=1;resizeParentMax=0;resizeLast=0;collapsible=0;marginBottom=0;html=1;swimlaneLine=1;rounded=0;glass=0;shadow=0;swimlaneHead=1;connectable=0;allowArrows=0;container=1;comic=0;fontSize=5;" vertex="1" parent="VkhU9kwHKQFLwFZGmQcn-36">
          <mxGeometry x="280" width="20" height="240" as="geometry">
            <mxRectangle x="320" width="70" height="30" as="alternateBounds" />
          </mxGeometry>
        </mxCell>
        <mxCell id="VkhU9kwHKQFLwFZGmQcn-63" value="X" style="text;strokeColor=none;fillColor=none;align=center;verticalAlign=middle;spacingLeft=4;spacingRight=4;overflow=hidden;points=[[0,0.5],[1,0.5]];portConstraint=eastwest;rotatable=0;whiteSpace=wrap;html=1;" vertex="1" parent="VkhU9kwHKQFLwFZGmQcn-62">
          <mxGeometry y="30" width="20" height="30" as="geometry" />
        </mxCell>
        <mxCell id="VkhU9kwHKQFLwFZGmQcn-64" value="&amp;nbsp;" style="text;strokeColor=none;fillColor=none;align=center;verticalAlign=middle;spacingLeft=4;spacingRight=4;overflow=hidden;points=[[0,0.5],[1,0.5]];portConstraint=eastwest;rotatable=0;whiteSpace=wrap;html=1;" vertex="1" parent="VkhU9kwHKQFLwFZGmQcn-62">
          <mxGeometry y="60" width="20" height="30" as="geometry" />
        </mxCell>
        <mxCell id="VkhU9kwHKQFLwFZGmQcn-65" value="&amp;nbsp;" style="text;strokeColor=none;fillColor=none;align=center;verticalAlign=middle;spacingLeft=4;spacingRight=4;overflow=hidden;points=[[0,0.5],[1,0.5]];portConstraint=eastwest;rotatable=0;whiteSpace=wrap;html=1;" vertex="1" parent="VkhU9kwHKQFLwFZGmQcn-62">
          <mxGeometry y="90" width="20" height="30" as="geometry" />
        </mxCell>
        <mxCell id="VkhU9kwHKQFLwFZGmQcn-66" value="&amp;nbsp;" style="text;strokeColor=none;fillColor=none;align=center;verticalAlign=middle;spacingLeft=4;spacingRight=4;overflow=hidden;points=[[0,0.5],[1,0.5]];portConstraint=eastwest;rotatable=0;whiteSpace=wrap;html=1;" vertex="1" parent="VkhU9kwHKQFLwFZGmQcn-62">
          <mxGeometry y="120" width="20" height="30" as="geometry" />
        </mxCell>
        <mxCell id="VkhU9kwHKQFLwFZGmQcn-75" value="&amp;nbsp;" style="text;strokeColor=none;fillColor=none;align=center;verticalAlign=middle;spacingLeft=4;spacingRight=4;overflow=hidden;points=[[0,0.5],[1,0.5]];portConstraint=eastwest;rotatable=0;whiteSpace=wrap;html=1;" vertex="1" parent="VkhU9kwHKQFLwFZGmQcn-62">
          <mxGeometry y="150" width="20" height="30" as="geometry" />
        </mxCell>
        <mxCell id="VkhU9kwHKQFLwFZGmQcn-76" value="&amp;nbsp;" style="text;strokeColor=none;fillColor=none;align=center;verticalAlign=middle;spacingLeft=4;spacingRight=4;overflow=hidden;points=[[0,0.5],[1,0.5]];portConstraint=eastwest;rotatable=0;whiteSpace=wrap;html=1;" vertex="1" parent="VkhU9kwHKQFLwFZGmQcn-62">
          <mxGeometry y="180" width="20" height="30" as="geometry" />
        </mxCell>
        <mxCell id="VkhU9kwHKQFLwFZGmQcn-85" value="&amp;nbsp;" style="text;strokeColor=none;fillColor=none;align=center;verticalAlign=middle;spacingLeft=4;spacingRight=4;overflow=hidden;points=[[0,0.5],[1,0.5]];portConstraint=eastwest;rotatable=0;whiteSpace=wrap;html=1;" vertex="1" parent="VkhU9kwHKQFLwFZGmQcn-62">
          <mxGeometry y="210" width="20" height="30" as="geometry" />
        </mxCell>
        <mxCell id="VkhU9kwHKQFLwFZGmQcn-89" value="Location" style="swimlane;horizontal=0;whiteSpace=wrap;html=1;startSize=40;collapsible=0;fillColor=#fff2cc;strokeColor=#d6b656;" vertex="1" parent="1">
          <mxGeometry x="40" y="880" width="360" height="270" as="geometry" />
        </mxCell>
        <mxCell id="VkhU9kwHKQFLwFZGmQcn-90" value="Field" style="swimlane;fontStyle=1;childLayout=stackLayout;horizontal=1;startSize=30;horizontalStack=0;resizeParent=1;resizeParentMax=0;resizeLast=0;collapsible=0;marginBottom=0;whiteSpace=wrap;html=1;" vertex="1" parent="VkhU9kwHKQFLwFZGmQcn-89">
          <mxGeometry x="40" width="120" height="270" as="geometry" />
        </mxCell>
        <mxCell id="VkhU9kwHKQFLwFZGmQcn-91" value="id" style="text;strokeColor=none;fillColor=none;align=left;verticalAlign=middle;spacingLeft=4;spacingRight=4;overflow=hidden;points=[[0,0.5],[1,0.5]];portConstraint=eastwest;rotatable=0;whiteSpace=wrap;html=1;" vertex="1" parent="VkhU9kwHKQFLwFZGmQcn-90">
          <mxGeometry y="30" width="120" height="30" as="geometry" />
        </mxCell>
        <mxCell id="VkhU9kwHKQFLwFZGmQcn-92" value="uuid" style="text;strokeColor=none;fillColor=none;align=left;verticalAlign=middle;spacingLeft=4;spacingRight=4;overflow=hidden;points=[[0,0.5],[1,0.5]];portConstraint=eastwest;rotatable=0;whiteSpace=wrap;html=1;" vertex="1" parent="VkhU9kwHKQFLwFZGmQcn-90">
          <mxGeometry y="60" width="120" height="30" as="geometry" />
        </mxCell>
        <mxCell id="VkhU9kwHKQFLwFZGmQcn-93" value="name" style="text;strokeColor=none;fillColor=none;align=left;verticalAlign=middle;spacingLeft=4;spacingRight=4;overflow=hidden;points=[[0,0.5],[1,0.5]];portConstraint=eastwest;rotatable=0;whiteSpace=wrap;html=1;" vertex="1" parent="VkhU9kwHKQFLwFZGmQcn-90">
          <mxGeometry y="90" width="120" height="30" as="geometry" />
        </mxCell>
        <mxCell id="VkhU9kwHKQFLwFZGmQcn-94" value="description" style="text;strokeColor=none;fillColor=none;align=left;verticalAlign=middle;spacingLeft=4;spacingRight=4;overflow=hidden;points=[[0,0.5],[1,0.5]];portConstraint=eastwest;rotatable=0;whiteSpace=wrap;html=1;" vertex="1" parent="VkhU9kwHKQFLwFZGmQcn-90">
          <mxGeometry y="120" width="120" height="30" as="geometry" />
        </mxCell>
        <mxCell id="VkhU9kwHKQFLwFZGmQcn-138" value="map_embed_code" style="text;strokeColor=none;fillColor=none;align=left;verticalAlign=middle;spacingLeft=4;spacingRight=4;overflow=hidden;points=[[0,0.5],[1,0.5]];portConstraint=eastwest;rotatable=0;whiteSpace=wrap;html=1;" vertex="1" parent="VkhU9kwHKQFLwFZGmQcn-90">
          <mxGeometry y="150" width="120" height="30" as="geometry" />
        </mxCell>
        <mxCell id="VkhU9kwHKQFLwFZGmQcn-95" value="flag_internal" style="text;strokeColor=none;fillColor=none;align=left;verticalAlign=middle;spacingLeft=4;spacingRight=4;overflow=hidden;points=[[0,0.5],[1,0.5]];portConstraint=eastwest;rotatable=0;whiteSpace=wrap;html=1;" vertex="1" parent="VkhU9kwHKQFLwFZGmQcn-90">
          <mxGeometry y="180" width="120" height="30" as="geometry" />
        </mxCell>
        <mxCell id="VkhU9kwHKQFLwFZGmQcn-96" value="contact_list" style="text;strokeColor=none;fillColor=none;align=left;verticalAlign=middle;spacingLeft=4;spacingRight=4;overflow=hidden;points=[[0,0.5],[1,0.5]];portConstraint=eastwest;rotatable=0;whiteSpace=wrap;html=1;" vertex="1" parent="VkhU9kwHKQFLwFZGmQcn-90">
          <mxGeometry y="210" width="120" height="30" as="geometry" />
        </mxCell>
        <mxCell id="VkhU9kwHKQFLwFZGmQcn-97" value="updated_at" style="text;strokeColor=none;fillColor=none;align=left;verticalAlign=middle;spacingLeft=4;spacingRight=4;overflow=hidden;points=[[0,0.5],[1,0.5]];portConstraint=eastwest;rotatable=0;whiteSpace=wrap;html=1;" vertex="1" parent="VkhU9kwHKQFLwFZGmQcn-90">
          <mxGeometry y="240" width="120" height="30" as="geometry" />
        </mxCell>
        <mxCell id="VkhU9kwHKQFLwFZGmQcn-98" value="Type" style="swimlane;fontStyle=1;childLayout=stackLayout;horizontal=1;startSize=30;horizontalStack=0;resizeParent=1;resizeParentMax=0;resizeLast=0;collapsible=0;marginBottom=0;whiteSpace=wrap;html=1;align=center;" vertex="1" parent="VkhU9kwHKQFLwFZGmQcn-89">
          <mxGeometry x="160" width="120" height="270" as="geometry" />
        </mxCell>
        <mxCell id="VkhU9kwHKQFLwFZGmQcn-99" value="integer" style="text;strokeColor=none;fillColor=none;align=left;verticalAlign=middle;spacingLeft=4;spacingRight=4;overflow=hidden;points=[[0,0.5],[1,0.5]];portConstraint=eastwest;rotatable=0;whiteSpace=wrap;html=1;" vertex="1" parent="VkhU9kwHKQFLwFZGmQcn-98">
          <mxGeometry y="30" width="120" height="30" as="geometry" />
        </mxCell>
        <mxCell id="VkhU9kwHKQFLwFZGmQcn-100" value="UUID" style="text;strokeColor=none;fillColor=none;align=left;verticalAlign=middle;spacingLeft=4;spacingRight=4;overflow=hidden;points=[[0,0.5],[1,0.5]];portConstraint=eastwest;rotatable=0;whiteSpace=wrap;html=1;" vertex="1" parent="VkhU9kwHKQFLwFZGmQcn-98">
          <mxGeometry y="60" width="120" height="30" as="geometry" />
        </mxCell>
        <mxCell id="VkhU9kwHKQFLwFZGmQcn-101" value="string(100)" style="text;strokeColor=none;fillColor=none;align=left;verticalAlign=middle;spacingLeft=4;spacingRight=4;overflow=hidden;points=[[0,0.5],[1,0.5]];portConstraint=eastwest;rotatable=0;whiteSpace=wrap;html=1;" vertex="1" parent="VkhU9kwHKQFLwFZGmQcn-98">
          <mxGeometry y="90" width="120" height="30" as="geometry" />
        </mxCell>
        <mxCell id="VkhU9kwHKQFLwFZGmQcn-102" value="text" style="text;strokeColor=none;fillColor=none;align=left;verticalAlign=middle;spacingLeft=4;spacingRight=4;overflow=hidden;points=[[0,0.5],[1,0.5]];portConstraint=eastwest;rotatable=0;whiteSpace=wrap;html=1;" vertex="1" parent="VkhU9kwHKQFLwFZGmQcn-98">
          <mxGeometry y="120" width="120" height="30" as="geometry" />
        </mxCell>
        <mxCell id="VkhU9kwHKQFLwFZGmQcn-139" value="text" style="text;strokeColor=none;fillColor=none;align=left;verticalAlign=middle;spacingLeft=4;spacingRight=4;overflow=hidden;points=[[0,0.5],[1,0.5]];portConstraint=eastwest;rotatable=0;whiteSpace=wrap;html=1;" vertex="1" parent="VkhU9kwHKQFLwFZGmQcn-98">
          <mxGeometry y="150" width="120" height="30" as="geometry" />
        </mxCell>
        <mxCell id="VkhU9kwHKQFLwFZGmQcn-103" value="boolean" style="text;strokeColor=none;fillColor=none;align=left;verticalAlign=middle;spacingLeft=4;spacingRight=4;overflow=hidden;points=[[0,0.5],[1,0.5]];portConstraint=eastwest;rotatable=0;whiteSpace=wrap;html=1;" vertex="1" parent="VkhU9kwHKQFLwFZGmQcn-98">
          <mxGeometry y="180" width="120" height="30" as="geometry" />
        </mxCell>
        <mxCell id="VkhU9kwHKQFLwFZGmQcn-104" value="JSON" style="text;strokeColor=none;fillColor=none;align=left;verticalAlign=middle;spacingLeft=4;spacingRight=4;overflow=hidden;points=[[0,0.5],[1,0.5]];portConstraint=eastwest;rotatable=0;whiteSpace=wrap;html=1;" vertex="1" parent="VkhU9kwHKQFLwFZGmQcn-98">
          <mxGeometry y="210" width="120" height="30" as="geometry" />
        </mxCell>
        <mxCell id="VkhU9kwHKQFLwFZGmQcn-105" value="datetimetz" style="text;strokeColor=none;fillColor=none;align=left;verticalAlign=middle;spacingLeft=4;spacingRight=4;overflow=hidden;points=[[0,0.5],[1,0.5]];portConstraint=eastwest;rotatable=0;whiteSpace=wrap;html=1;" vertex="1" parent="VkhU9kwHKQFLwFZGmQcn-98">
          <mxGeometry y="240" width="120" height="30" as="geometry" />
        </mxCell>
        <mxCell id="VkhU9kwHKQFLwFZGmQcn-106" value="Uniq" style="swimlane;fontStyle=1;childLayout=stackLayout;horizontal=1;startSize=30;horizontalStack=0;resizeParent=1;resizeParentMax=0;resizeLast=0;collapsible=0;marginBottom=0;html=1;swimlaneLine=1;rounded=0;glass=0;shadow=0;swimlaneHead=1;connectable=0;allowArrows=0;container=1;comic=0;fontSize=7;" vertex="1" parent="VkhU9kwHKQFLwFZGmQcn-89">
          <mxGeometry x="320" width="20" height="270" as="geometry">
            <mxRectangle x="320" width="70" height="30" as="alternateBounds" />
          </mxGeometry>
        </mxCell>
        <mxCell id="VkhU9kwHKQFLwFZGmQcn-107" value="X" style="text;strokeColor=none;fillColor=none;align=center;verticalAlign=middle;spacingLeft=4;spacingRight=4;overflow=hidden;points=[[0,0.5],[1,0.5]];portConstraint=eastwest;rotatable=0;whiteSpace=wrap;html=1;" vertex="1" parent="VkhU9kwHKQFLwFZGmQcn-106">
          <mxGeometry y="30" width="20" height="30" as="geometry" />
        </mxCell>
        <mxCell id="VkhU9kwHKQFLwFZGmQcn-108" value="X" style="text;strokeColor=none;fillColor=none;align=center;verticalAlign=middle;spacingLeft=4;spacingRight=4;overflow=hidden;points=[[0,0.5],[1,0.5]];portConstraint=eastwest;rotatable=0;whiteSpace=wrap;html=1;" vertex="1" parent="VkhU9kwHKQFLwFZGmQcn-106">
          <mxGeometry y="60" width="20" height="30" as="geometry" />
        </mxCell>
        <mxCell id="VkhU9kwHKQFLwFZGmQcn-109" value="X" style="text;strokeColor=none;fillColor=none;align=center;verticalAlign=middle;spacingLeft=4;spacingRight=4;overflow=hidden;points=[[0,0.5],[1,0.5]];portConstraint=eastwest;rotatable=0;whiteSpace=wrap;html=1;" vertex="1" parent="VkhU9kwHKQFLwFZGmQcn-106">
          <mxGeometry y="90" width="20" height="30" as="geometry" />
        </mxCell>
        <mxCell id="VkhU9kwHKQFLwFZGmQcn-110" value="&amp;nbsp;" style="text;strokeColor=none;fillColor=none;align=center;verticalAlign=middle;spacingLeft=4;spacingRight=4;overflow=hidden;points=[[0,0.5],[1,0.5]];portConstraint=eastwest;rotatable=0;whiteSpace=wrap;html=1;" vertex="1" parent="VkhU9kwHKQFLwFZGmQcn-106">
          <mxGeometry y="120" width="20" height="30" as="geometry" />
        </mxCell>
        <mxCell id="VkhU9kwHKQFLwFZGmQcn-111" value="&amp;nbsp;" style="text;strokeColor=none;fillColor=none;align=center;verticalAlign=middle;spacingLeft=4;spacingRight=4;overflow=hidden;points=[[0,0.5],[1,0.5]];portConstraint=eastwest;rotatable=0;whiteSpace=wrap;html=1;" vertex="1" parent="VkhU9kwHKQFLwFZGmQcn-106">
          <mxGeometry y="150" width="20" height="30" as="geometry" />
        </mxCell>
        <mxCell id="VkhU9kwHKQFLwFZGmQcn-112" value="&amp;nbsp;" style="text;strokeColor=none;fillColor=none;align=center;verticalAlign=middle;spacingLeft=4;spacingRight=4;overflow=hidden;points=[[0,0.5],[1,0.5]];portConstraint=eastwest;rotatable=0;whiteSpace=wrap;html=1;" vertex="1" parent="VkhU9kwHKQFLwFZGmQcn-106">
          <mxGeometry y="180" width="20" height="30" as="geometry" />
        </mxCell>
        <mxCell id="VkhU9kwHKQFLwFZGmQcn-113" value="&amp;nbsp;" style="text;strokeColor=none;fillColor=none;align=center;verticalAlign=middle;spacingLeft=4;spacingRight=4;overflow=hidden;points=[[0,0.5],[1,0.5]];portConstraint=eastwest;rotatable=0;whiteSpace=wrap;html=1;" vertex="1" parent="VkhU9kwHKQFLwFZGmQcn-106">
          <mxGeometry y="210" width="20" height="30" as="geometry" />
        </mxCell>
        <mxCell id="VkhU9kwHKQFLwFZGmQcn-142" value="&amp;nbsp;" style="text;strokeColor=none;fillColor=none;align=center;verticalAlign=middle;spacingLeft=4;spacingRight=4;overflow=hidden;points=[[0,0.5],[1,0.5]];portConstraint=eastwest;rotatable=0;whiteSpace=wrap;html=1;" vertex="1" parent="VkhU9kwHKQFLwFZGmQcn-106">
          <mxGeometry y="240" width="20" height="30" as="geometry" />
        </mxCell>
        <mxCell id="VkhU9kwHKQFLwFZGmQcn-114" value="Seq" style="swimlane;fontStyle=1;childLayout=stackLayout;horizontal=1;startSize=30;horizontalStack=0;resizeParent=1;resizeParentMax=0;resizeLast=0;collapsible=0;marginBottom=0;html=1;swimlaneLine=1;rounded=0;glass=0;shadow=0;swimlaneHead=1;connectable=0;allowArrows=0;container=1;comic=0;fontSize=7;" vertex="1" parent="VkhU9kwHKQFLwFZGmQcn-89">
          <mxGeometry x="300" width="20" height="270" as="geometry">
            <mxRectangle x="320" width="70" height="30" as="alternateBounds" />
          </mxGeometry>
        </mxCell>
        <mxCell id="VkhU9kwHKQFLwFZGmQcn-115" value="X" style="text;strokeColor=none;fillColor=none;align=center;verticalAlign=middle;spacingLeft=4;spacingRight=4;overflow=hidden;points=[[0,0.5],[1,0.5]];portConstraint=eastwest;rotatable=0;whiteSpace=wrap;html=1;" vertex="1" parent="VkhU9kwHKQFLwFZGmQcn-114">
          <mxGeometry y="30" width="20" height="30" as="geometry" />
        </mxCell>
        <mxCell id="VkhU9kwHKQFLwFZGmQcn-116" value="&amp;nbsp;" style="text;strokeColor=none;fillColor=none;align=center;verticalAlign=middle;spacingLeft=4;spacingRight=4;overflow=hidden;points=[[0,0.5],[1,0.5]];portConstraint=eastwest;rotatable=0;whiteSpace=wrap;html=1;" vertex="1" parent="VkhU9kwHKQFLwFZGmQcn-114">
          <mxGeometry y="60" width="20" height="30" as="geometry" />
        </mxCell>
        <mxCell id="VkhU9kwHKQFLwFZGmQcn-117" value="&amp;nbsp;" style="text;strokeColor=none;fillColor=none;align=center;verticalAlign=middle;spacingLeft=4;spacingRight=4;overflow=hidden;points=[[0,0.5],[1,0.5]];portConstraint=eastwest;rotatable=0;whiteSpace=wrap;html=1;" vertex="1" parent="VkhU9kwHKQFLwFZGmQcn-114">
          <mxGeometry y="90" width="20" height="30" as="geometry" />
        </mxCell>
        <mxCell id="VkhU9kwHKQFLwFZGmQcn-118" value="&amp;nbsp;" style="text;strokeColor=none;fillColor=none;align=center;verticalAlign=middle;spacingLeft=4;spacingRight=4;overflow=hidden;points=[[0,0.5],[1,0.5]];portConstraint=eastwest;rotatable=0;whiteSpace=wrap;html=1;" vertex="1" parent="VkhU9kwHKQFLwFZGmQcn-114">
          <mxGeometry y="120" width="20" height="30" as="geometry" />
        </mxCell>
        <mxCell id="VkhU9kwHKQFLwFZGmQcn-119" value="&amp;nbsp;" style="text;strokeColor=none;fillColor=none;align=center;verticalAlign=middle;spacingLeft=4;spacingRight=4;overflow=hidden;points=[[0,0.5],[1,0.5]];portConstraint=eastwest;rotatable=0;whiteSpace=wrap;html=1;" vertex="1" parent="VkhU9kwHKQFLwFZGmQcn-114">
          <mxGeometry y="150" width="20" height="30" as="geometry" />
        </mxCell>
        <mxCell id="VkhU9kwHKQFLwFZGmQcn-120" value="&amp;nbsp;" style="text;strokeColor=none;fillColor=none;align=center;verticalAlign=middle;spacingLeft=4;spacingRight=4;overflow=hidden;points=[[0,0.5],[1,0.5]];portConstraint=eastwest;rotatable=0;whiteSpace=wrap;html=1;" vertex="1" parent="VkhU9kwHKQFLwFZGmQcn-114">
          <mxGeometry y="180" width="20" height="30" as="geometry" />
        </mxCell>
        <mxCell id="VkhU9kwHKQFLwFZGmQcn-121" value="&amp;nbsp;" style="text;strokeColor=none;fillColor=none;align=center;verticalAlign=middle;spacingLeft=4;spacingRight=4;overflow=hidden;points=[[0,0.5],[1,0.5]];portConstraint=eastwest;rotatable=0;whiteSpace=wrap;html=1;" vertex="1" parent="VkhU9kwHKQFLwFZGmQcn-114">
          <mxGeometry y="210" width="20" height="30" as="geometry" />
        </mxCell>
        <mxCell id="VkhU9kwHKQFLwFZGmQcn-141" value="&amp;nbsp;" style="text;strokeColor=none;fillColor=none;align=center;verticalAlign=middle;spacingLeft=4;spacingRight=4;overflow=hidden;points=[[0,0.5],[1,0.5]];portConstraint=eastwest;rotatable=0;whiteSpace=wrap;html=1;" vertex="1" parent="VkhU9kwHKQFLwFZGmQcn-114">
          <mxGeometry y="240" width="20" height="30" as="geometry" />
        </mxCell>
        <mxCell id="VkhU9kwHKQFLwFZGmQcn-122" value="Null" style="swimlane;fontStyle=1;childLayout=stackLayout;horizontal=1;startSize=30;horizontalStack=0;resizeParent=1;resizeParentMax=0;resizeLast=0;collapsible=0;marginBottom=0;html=1;swimlaneLine=1;rounded=0;glass=0;shadow=0;swimlaneHead=1;connectable=0;allowArrows=0;container=1;comic=0;fontSize=7;" vertex="1" parent="VkhU9kwHKQFLwFZGmQcn-89">
          <mxGeometry x="340" width="20" height="270" as="geometry">
            <mxRectangle x="320" width="70" height="30" as="alternateBounds" />
          </mxGeometry>
        </mxCell>
        <mxCell id="VkhU9kwHKQFLwFZGmQcn-123" value="&amp;nbsp;" style="text;strokeColor=none;fillColor=none;align=center;verticalAlign=middle;spacingLeft=4;spacingRight=4;overflow=hidden;points=[[0,0.5],[1,0.5]];portConstraint=eastwest;rotatable=0;whiteSpace=wrap;html=1;" vertex="1" parent="VkhU9kwHKQFLwFZGmQcn-122">
          <mxGeometry y="30" width="20" height="30" as="geometry" />
        </mxCell>
        <mxCell id="VkhU9kwHKQFLwFZGmQcn-124" value="&amp;nbsp;" style="text;strokeColor=none;fillColor=none;align=center;verticalAlign=middle;spacingLeft=4;spacingRight=4;overflow=hidden;points=[[0,0.5],[1,0.5]];portConstraint=eastwest;rotatable=0;whiteSpace=wrap;html=1;" vertex="1" parent="VkhU9kwHKQFLwFZGmQcn-122">
          <mxGeometry y="60" width="20" height="30" as="geometry" />
        </mxCell>
        <mxCell id="VkhU9kwHKQFLwFZGmQcn-125" value="&amp;nbsp;" style="text;strokeColor=none;fillColor=none;align=center;verticalAlign=middle;spacingLeft=4;spacingRight=4;overflow=hidden;points=[[0,0.5],[1,0.5]];portConstraint=eastwest;rotatable=0;whiteSpace=wrap;html=1;" vertex="1" parent="VkhU9kwHKQFLwFZGmQcn-122">
          <mxGeometry y="90" width="20" height="30" as="geometry" />
        </mxCell>
        <mxCell id="VkhU9kwHKQFLwFZGmQcn-126" value="X" style="text;strokeColor=none;fillColor=none;align=center;verticalAlign=middle;spacingLeft=4;spacingRight=4;overflow=hidden;points=[[0,0.5],[1,0.5]];portConstraint=eastwest;rotatable=0;whiteSpace=wrap;html=1;" vertex="1" parent="VkhU9kwHKQFLwFZGmQcn-122">
          <mxGeometry y="120" width="20" height="30" as="geometry" />
        </mxCell>
        <mxCell id="VkhU9kwHKQFLwFZGmQcn-127" value="X" style="text;strokeColor=none;fillColor=none;align=center;verticalAlign=middle;spacingLeft=4;spacingRight=4;overflow=hidden;points=[[0,0.5],[1,0.5]];portConstraint=eastwest;rotatable=0;whiteSpace=wrap;html=1;" vertex="1" parent="VkhU9kwHKQFLwFZGmQcn-122">
          <mxGeometry y="150" width="20" height="30" as="geometry" />
        </mxCell>
        <mxCell id="VkhU9kwHKQFLwFZGmQcn-129" value="&amp;nbsp;" style="text;strokeColor=none;fillColor=none;align=center;verticalAlign=middle;spacingLeft=4;spacingRight=4;overflow=hidden;points=[[0,0.5],[1,0.5]];portConstraint=eastwest;rotatable=0;whiteSpace=wrap;html=1;" vertex="1" parent="VkhU9kwHKQFLwFZGmQcn-122">
          <mxGeometry y="180" width="20" height="30" as="geometry" />
        </mxCell>
        <mxCell id="VkhU9kwHKQFLwFZGmQcn-128" value="X" style="text;strokeColor=none;fillColor=none;align=center;verticalAlign=middle;spacingLeft=4;spacingRight=4;overflow=hidden;points=[[0,0.5],[1,0.5]];portConstraint=eastwest;rotatable=0;whiteSpace=wrap;html=1;" vertex="1" parent="VkhU9kwHKQFLwFZGmQcn-122">
          <mxGeometry y="210" width="20" height="30" as="geometry" />
        </mxCell>
        <mxCell id="VkhU9kwHKQFLwFZGmQcn-143" value="&amp;nbsp;" style="text;strokeColor=none;fillColor=none;align=center;verticalAlign=middle;spacingLeft=4;spacingRight=4;overflow=hidden;points=[[0,0.5],[1,0.5]];portConstraint=eastwest;rotatable=0;whiteSpace=wrap;html=1;" vertex="1" parent="VkhU9kwHKQFLwFZGmQcn-122">
          <mxGeometry y="240" width="20" height="30" as="geometry" />
        </mxCell>
        <mxCell id="VkhU9kwHKQFLwFZGmQcn-130" value="Primary" style="swimlane;fontStyle=1;childLayout=stackLayout;horizontal=1;startSize=30;horizontalStack=0;resizeParent=1;resizeParentMax=0;resizeLast=0;collapsible=0;marginBottom=0;html=1;swimlaneLine=1;rounded=0;glass=0;shadow=0;swimlaneHead=1;connectable=0;allowArrows=0;container=1;comic=0;fontSize=5;" vertex="1" parent="VkhU9kwHKQFLwFZGmQcn-89">
          <mxGeometry x="280" width="20" height="270" as="geometry">
            <mxRectangle x="320" width="70" height="30" as="alternateBounds" />
          </mxGeometry>
        </mxCell>
        <mxCell id="VkhU9kwHKQFLwFZGmQcn-131" value="X" style="text;strokeColor=none;fillColor=none;align=center;verticalAlign=middle;spacingLeft=4;spacingRight=4;overflow=hidden;points=[[0,0.5],[1,0.5]];portConstraint=eastwest;rotatable=0;whiteSpace=wrap;html=1;" vertex="1" parent="VkhU9kwHKQFLwFZGmQcn-130">
          <mxGeometry y="30" width="20" height="30" as="geometry" />
        </mxCell>
        <mxCell id="VkhU9kwHKQFLwFZGmQcn-132" value="&amp;nbsp;" style="text;strokeColor=none;fillColor=none;align=center;verticalAlign=middle;spacingLeft=4;spacingRight=4;overflow=hidden;points=[[0,0.5],[1,0.5]];portConstraint=eastwest;rotatable=0;whiteSpace=wrap;html=1;" vertex="1" parent="VkhU9kwHKQFLwFZGmQcn-130">
          <mxGeometry y="60" width="20" height="30" as="geometry" />
        </mxCell>
        <mxCell id="VkhU9kwHKQFLwFZGmQcn-133" value="&amp;nbsp;" style="text;strokeColor=none;fillColor=none;align=center;verticalAlign=middle;spacingLeft=4;spacingRight=4;overflow=hidden;points=[[0,0.5],[1,0.5]];portConstraint=eastwest;rotatable=0;whiteSpace=wrap;html=1;" vertex="1" parent="VkhU9kwHKQFLwFZGmQcn-130">
          <mxGeometry y="90" width="20" height="30" as="geometry" />
        </mxCell>
        <mxCell id="VkhU9kwHKQFLwFZGmQcn-134" value="&amp;nbsp;" style="text;strokeColor=none;fillColor=none;align=center;verticalAlign=middle;spacingLeft=4;spacingRight=4;overflow=hidden;points=[[0,0.5],[1,0.5]];portConstraint=eastwest;rotatable=0;whiteSpace=wrap;html=1;" vertex="1" parent="VkhU9kwHKQFLwFZGmQcn-130">
          <mxGeometry y="120" width="20" height="30" as="geometry" />
        </mxCell>
        <mxCell id="VkhU9kwHKQFLwFZGmQcn-135" value="&amp;nbsp;" style="text;strokeColor=none;fillColor=none;align=center;verticalAlign=middle;spacingLeft=4;spacingRight=4;overflow=hidden;points=[[0,0.5],[1,0.5]];portConstraint=eastwest;rotatable=0;whiteSpace=wrap;html=1;" vertex="1" parent="VkhU9kwHKQFLwFZGmQcn-130">
          <mxGeometry y="150" width="20" height="30" as="geometry" />
        </mxCell>
        <mxCell id="VkhU9kwHKQFLwFZGmQcn-136" value="&amp;nbsp;" style="text;strokeColor=none;fillColor=none;align=center;verticalAlign=middle;spacingLeft=4;spacingRight=4;overflow=hidden;points=[[0,0.5],[1,0.5]];portConstraint=eastwest;rotatable=0;whiteSpace=wrap;html=1;" vertex="1" parent="VkhU9kwHKQFLwFZGmQcn-130">
          <mxGeometry y="180" width="20" height="30" as="geometry" />
        </mxCell>
        <mxCell id="VkhU9kwHKQFLwFZGmQcn-137" value="&amp;nbsp;" style="text;strokeColor=none;fillColor=none;align=center;verticalAlign=middle;spacingLeft=4;spacingRight=4;overflow=hidden;points=[[0,0.5],[1,0.5]];portConstraint=eastwest;rotatable=0;whiteSpace=wrap;html=1;" vertex="1" parent="VkhU9kwHKQFLwFZGmQcn-130">
          <mxGeometry y="210" width="20" height="30" as="geometry" />
        </mxCell>
        <mxCell id="VkhU9kwHKQFLwFZGmQcn-140" value="&amp;nbsp;" style="text;strokeColor=none;fillColor=none;align=center;verticalAlign=middle;spacingLeft=4;spacingRight=4;overflow=hidden;points=[[0,0.5],[1,0.5]];portConstraint=eastwest;rotatable=0;whiteSpace=wrap;html=1;" vertex="1" parent="VkhU9kwHKQFLwFZGmQcn-130">
          <mxGeometry y="240" width="20" height="30" as="geometry" />
        </mxCell>
      </root>
    </mxGraphModel>
  </diagram>
  <diagram id="cLUNPzimXWGl3kpA_l2k" name="Page-2">
    <mxGraphModel dx="1595" dy="1103" grid="1" gridSize="10" guides="1" tooltips="1" connect="1" arrows="1" fold="1" page="0" pageScale="1" pageWidth="850" pageHeight="1100" math="0" shadow="0">
      <root>
        <mxCell id="0" />
        <mxCell id="1" parent="0" />
        <mxCell id="o30S6EcQWrY6_97HB9X--3" style="rounded=0;orthogonalLoop=1;jettySize=auto;html=1;exitX=1;exitY=0.5;exitDx=0;exitDy=0;" edge="1" parent="1" source="o30S6EcQWrY6_97HB9X--1" target="o30S6EcQWrY6_97HB9X--2">
          <mxGeometry relative="1" as="geometry" />
        </mxCell>
        <mxCell id="o30S6EcQWrY6_97HB9X--1" value="Department" style="rounded=0;whiteSpace=wrap;html=1;fontStyle=1" vertex="1" parent="1">
          <mxGeometry x="-200" y="-40" width="200" height="80" as="geometry" />
        </mxCell>
        <mxCell id="o30S6EcQWrY6_97HB9X--2" value="Location" style="rounded=0;whiteSpace=wrap;html=1;fontStyle=1" vertex="1" parent="1">
          <mxGeometry x="120" width="200" height="80" as="geometry" />
        </mxCell>
      </root>
    </mxGraphModel>
  </diagram>
</mxfile>
